<svg style="position: absolute; width: 0; height: 0;" width="0" height="0" version="1.1" xmlns="http://www.w3.org/2000/svg" xmlns:xlink="http://www.w3.org/1999/xlink">
<defs>
<symbol id="icon-user" viewBox="0 0 25 32">
<title>user</title>
<path class="path1" d="M25.143 25.089q0 2.143-1.304 3.384t-3.464 1.241h-15.607q-2.161 0-3.464-1.241t-1.304-3.384q0-0.946 0.063-1.848t0.25-1.946 0.473-1.938 0.768-1.741 1.107-1.446 1.527-0.955 1.991-0.357q0.161 0 0.75 0.384t1.33 0.857 1.929 0.857 2.384 0.384 2.384-0.384 1.929-0.857 1.33-0.857 0.75-0.384q1.089 0 1.991 0.357t1.527 0.955 1.107 1.446 0.768 1.741 0.473 1.938 0.25 1.946 0.063 1.848zM19.429 9.143q0 2.839-2.009 4.848t-4.848 2.009-4.848-2.009-2.009-4.848 2.009-4.848 4.848-2.009 4.848 2.009 2.009 4.848z"></path>
</symbol>
<symbol id="icon-ok" viewBox="0 0 32 32">
<title>ok</title>
<path class="path1" d="M29.839 10.107q0 0.714-0.5 1.214l-15.357 15.357q-0.5 0.5-1.214 0.5t-1.214-0.5l-8.893-8.893q-0.5-0.5-0.5-1.214t0.5-1.214l2.429-2.429q0.5-0.5 1.214-0.5t1.214 0.5l5.25 5.268 11.714-11.732q0.5-0.5 1.214-0.5t1.214 0.5l2.429 2.429q0.5 0.5 0.5 1.214z"></path>
</symbol>
<symbol id="icon-cancel" viewBox="0 0 25 32">
<title>cancel</title>
<path class="path1" d="M23.179 23.607q0 0.714-0.5 1.214l-2.429 2.429q-0.5 0.5-1.214 0.5t-1.214-0.5l-5.25-5.25-5.25 5.25q-0.5 0.5-1.214 0.5t-1.214-0.5l-2.429-2.429q-0.5-0.5-0.5-1.214t0.5-1.214l5.25-5.25-5.25-5.25q-0.5-0.5-0.5-1.214t0.5-1.214l2.429-2.429q0.5-0.5 1.214-0.5t1.214 0.5l5.25 5.25 5.25-5.25q0.5-0.5 1.214-0.5t1.214 0.5l2.429 2.429q0.5 0.5 0.5 1.214t-0.5 1.214l-5.25 5.25 5.25 5.25q0.5 0.5 0.5 1.214z"></path>
</symbol>
<symbol id="icon-cog" viewBox="0 0 27 32">
<title>cog</title>
<path class="path1" d="M18.286 16q0-1.893-1.339-3.232t-3.232-1.339-3.232 1.339-1.339 3.232 1.339 3.232 3.232 1.339 3.232-1.339 1.339-3.232zM27.429 14.054v3.964q0 0.214-0.143 0.411t-0.357 0.232l-3.304 0.5q-0.339 0.964-0.696 1.625 0.625 0.893 1.911 2.464 0.179 0.214 0.179 0.446t-0.161 0.411q-0.482 0.661-1.768 1.929t-1.679 1.268q-0.214 0-0.464-0.161l-2.464-1.929q-0.786 0.411-1.625 0.679-0.286 2.429-0.518 3.321-0.125 0.5-0.643 0.5h-3.964q-0.25 0-0.438-0.152t-0.205-0.384l-0.5-3.286q-0.875-0.286-1.607-0.661l-2.518 1.911q-0.179 0.161-0.446 0.161-0.25 0-0.446-0.196-2.25-2.036-2.946-3-0.125-0.179-0.125-0.411 0-0.214 0.143-0.411 0.268-0.375 0.911-1.188t0.964-1.259q-0.482-0.893-0.732-1.768l-3.268-0.482q-0.232-0.036-0.375-0.223t-0.143-0.42v-3.964q0-0.214 0.143-0.411t0.339-0.232l3.321-0.5q0.25-0.821 0.696-1.643-0.714-1.018-1.911-2.464-0.179-0.214-0.179-0.429 0-0.179 0.161-0.411 0.464-0.643 1.759-1.92t1.688-1.277q0.232 0 0.464 0.179l2.464 1.911q0.786-0.411 1.625-0.679 0.286-2.429 0.518-3.321 0.125-0.5 0.643-0.5h3.964q0.25 0 0.438 0.152t0.205 0.384l0.5 3.286q0.875 0.286 1.607 0.661l2.536-1.911q0.161-0.161 0.429-0.161 0.232 0 0.446 0.179 2.304 2.125 2.946 3.036 0.125 0.143 0.125 0.393 0 0.214-0.143 0.411-0.268 0.375-0.911 1.188t-0.964 1.259q0.464 0.893 0.732 1.75l3.268 0.5q0.232 0.036 0.375 0.223t0.143 0.42z"></path>
</symbol>
<symbol id="icon-volume-off" viewBox="0 0 14 32">
<title>volume-off</title>
<path class="path1" d="M13.714 6.286v19.429q0 0.464-0.339 0.804t-0.804 0.339-0.804-0.339l-5.946-5.946h-4.679q-0.464 0-0.804-0.339t-0.339-0.804v-6.857q0-0.464 0.339-0.804t0.804-0.339h4.679l5.946-5.946q0.339-0.339 0.804-0.339t0.804 0.339 0.339 0.804z"></path>
</symbol>
<symbol id="icon-volume-down" viewBox="0 0 21 32">
<title>volume-down</title>
<path class="path1" d="M13.714 6.286v19.429q0 0.464-0.339 0.804t-0.804 0.339-0.804-0.339l-5.946-5.946h-4.679q-0.464 0-0.804-0.339t-0.339-0.804v-6.857q0-0.464 0.339-0.804t0.804-0.339h4.679l5.946-5.946q0.339-0.339 0.804-0.339t0.804 0.339 0.339 0.804zM20.571 16q0 1.357-0.759 2.527t-2.009 1.67q-0.179 0.089-0.446 0.089-0.464 0-0.804-0.33t-0.339-0.813q0-0.375 0.214-0.634t0.518-0.446 0.607-0.411 0.518-0.634 0.214-1.018-0.214-1.018-0.518-0.634-0.607-0.411-0.518-0.446-0.214-0.634q0-0.482 0.339-0.813t0.804-0.33q0.268 0 0.446 0.089 1.25 0.482 2.009 1.661t0.759 2.536z"></path>
</symbol>
<symbol id="icon-volume-up" viewBox="0 0 30 32">
<title>volume-up</title>
<path class="path1" d="M13.714 6.286v19.429q0 0.464-0.339 0.804t-0.804 0.339-0.804-0.339l-5.946-5.946h-4.679q-0.464 0-0.804-0.339t-0.339-0.804v-6.857q0-0.464 0.339-0.804t0.804-0.339h4.679l5.946-5.946q0.339-0.339 0.804-0.339t0.804 0.339 0.339 0.804zM20.571 16q0 1.357-0.759 2.527t-2.009 1.67q-0.179 0.089-0.446 0.089-0.464 0-0.804-0.33t-0.339-0.813q0-0.375 0.214-0.634t0.518-0.446 0.607-0.411 0.518-0.634 0.214-1.018-0.214-1.018-0.518-0.634-0.607-0.411-0.518-0.446-0.214-0.634q0-0.482 0.339-0.813t0.804-0.33q0.268 0 0.446 0.089 1.25 0.482 2.009 1.661t0.759 2.536zM25.143 16q0 2.732-1.518 5.045t-4.018 3.366q-0.232 0.089-0.446 0.089-0.482 0-0.821-0.339t-0.339-0.804q0-0.696 0.696-1.054 1-0.518 1.357-0.786 1.321-0.964 2.063-2.42t0.741-3.098-0.741-3.098-2.063-2.42q-0.357-0.268-1.357-0.786-0.696-0.357-0.696-1.054 0-0.464 0.339-0.804t0.804-0.339q0.232 0 0.464 0.089 2.5 1.054 4.018 3.366t1.518 5.045zM29.714 16q0 4.107-2.268 7.545t-6.036 5.063q-0.232 0.089-0.464 0.089-0.464 0-0.804-0.339t-0.339-0.804q0-0.643 0.696-1.054 0.125-0.071 0.402-0.188t0.402-0.188q0.821-0.446 1.464-0.911 2.196-1.625 3.429-4.054t1.232-5.161-1.232-5.161-3.429-4.054q-0.643-0.464-1.464-0.911-0.125-0.071-0.402-0.188t-0.402-0.188q-0.696-0.411-0.696-1.054 0-0.464 0.339-0.804t0.804-0.339q0.232 0 0.464 0.089 3.768 1.625 6.036 5.063t2.268 7.545z"></path>
</symbol>
<symbol id="icon-video" viewBox="0 0 32 32">
<title>video</title>
<path class="path1" d="M32 6.286v19.429q0 0.75-0.696 1.054-0.232 0.089-0.446 0.089-0.482 0-0.804-0.339l-7.196-7.196v2.964q0 2.125-1.509 3.634t-3.634 1.509h-12.571q-2.125 0-3.634-1.509t-1.509-3.634v-12.571q0-2.125 1.509-3.634t3.634-1.509h12.571q2.125 0 3.634 1.509t1.509 3.634v2.946l7.196-7.179q0.321-0.339 0.804-0.339 0.214 0 0.446 0.089 0.696 0.304 0.696 1.054z"></path>
</symbol>
<symbol id="icon-play" viewBox="0 0 25 32">
<title>play</title>
<path class="path1" d="M24.714 16.554l-23.714 13.179q-0.411 0.232-0.705 0.054t-0.295-0.643v-26.286q0-0.464 0.295-0.643t0.705 0.054l23.714 13.179q0.411 0.232 0.411 0.554t-0.411 0.554z"></path>
</symbol>
<symbol id="icon-pause" viewBox="0 0 27 32">
<title>pause</title>
<path class="path1" d="M27.429 3.429v25.143q0 0.464-0.339 0.804t-0.804 0.339h-9.143q-0.464 0-0.804-0.339t-0.339-0.804v-25.143q0-0.464 0.339-0.804t0.804-0.339h9.143q0.464 0 0.804 0.339t0.339 0.804zM11.429 3.429v25.143q0 0.464-0.339 0.804t-0.804 0.339h-9.143q-0.464 0-0.804-0.339t-0.339-0.804v-25.143q0-0.464 0.339-0.804t0.804-0.339h9.143q0.464 0 0.804 0.339t0.339 0.804z"></path>
</symbol>
<symbol id="icon-chevron-right" viewBox="0 0 22 32">
<title>chevron-right</title>
<path class="path1" d="M19.768 15.661l-13.25 13.25q-0.339 0.339-0.804 0.339t-0.804-0.339l-2.964-2.964q-0.339-0.339-0.339-0.804t0.339-0.804l9.482-9.482-9.482-9.482q-0.339-0.339-0.339-0.804t0.339-0.804l2.964-2.964q0.339-0.339 0.804-0.339t0.804 0.339l13.25 13.25q0.339 0.339 0.339 0.804t-0.339 0.804z"></path>
</symbol>
<symbol id="icon-chat" viewBox="0 0 32 32">
<title>chat</title>
<path class="path1" d="M25.143 13.714q0 2.482-1.679 4.589t-4.58 3.33-6.313 1.223q-1.536 0-3.143-0.286-2.214 1.571-4.964 2.286-0.643 0.161-1.536 0.286h-0.054q-0.196 0-0.366-0.143t-0.205-0.375q-0.018-0.054-0.018-0.116t0.009-0.116 0.036-0.107l0.045-0.089t0.063-0.098 0.071-0.089 0.080-0.089 0.071-0.080q0.089-0.107 0.411-0.446t0.464-0.527 0.402-0.518 0.446-0.688 0.366-0.786q-2.214-1.286-3.482-3.161t-1.268-4q0-2.482 1.679-4.589t4.58-3.33 6.312-1.223 6.313 1.223 4.58 3.33 1.679 4.589zM32 18.286q0 2.143-1.268 4.009t-3.482 3.152q0.179 0.429 0.366 0.786t0.446 0.688 0.402 0.518 0.464 0.527 0.411 0.446q0.018 0.018 0.071 0.080t0.080 0.089 0.071 0.089 0.063 0.098l0.045 0.089t0.036 0.107 0.009 0.116-0.018 0.116q-0.054 0.25-0.232 0.393t-0.393 0.125q-0.893-0.125-1.536-0.286-2.75-0.714-4.964-2.286-1.607 0.286-3.143 0.286-4.839 0-8.429-2.357 1.036 0.071 1.571 0.071 2.875 0 5.518-0.804t4.714-2.304q2.232-1.643 3.429-3.786t1.196-4.536q0-1.375-0.411-2.714 2.304 1.268 3.643 3.179t1.339 4.107z"></path>
</symbol>
<symbol id="icon-send" viewBox="0 0 25 32">
<title>send</title>
<path class="path1" d="M25.018 6.232l-11.429 22.857q-0.304 0.625-1.018 0.625-0.089 0-0.268-0.036-0.393-0.089-0.634-0.402t-0.241-0.705v-10.286h-10.286q-0.393 0-0.705-0.241t-0.402-0.634 0.071-0.75 0.518-0.536l22.857-11.429q0.232-0.125 0.518-0.125 0.482 0 0.804 0.339 0.268 0.25 0.33 0.616t-0.116 0.705z"></path>
</symbol>
<symbol id="icon-paper-plane" viewBox="0 0 32 32">
<title>paper-plane</title>
<path class="path1" d="M31.5 0.196q0.589 0.429 0.482 1.143l-4.571 27.429q-0.089 0.518-0.571 0.804-0.25 0.143-0.554 0.143-0.196 0-0.429-0.089l-8.089-3.304-4.321 5.268q-0.321 0.411-0.875 0.411-0.232 0-0.393-0.071-0.339-0.125-0.545-0.42t-0.205-0.652v-6.232l15.429-18.911-19.089 16.518-7.054-2.893q-0.661-0.25-0.714-0.982-0.036-0.714 0.571-1.054l29.714-17.143q0.268-0.161 0.571-0.161 0.357 0 0.643 0.196z"></path>
</symbol>
<symbol id="icon-share" viewBox="0 0 27 32">
<title>share</title>
<path class="path1" d="M21.714 18.286q2.375 0 4.045 1.67t1.67 4.045-1.67 4.045-4.045 1.67-4.045-1.67-1.67-4.045q0-0.214 0.036-0.607l-6.429-3.214q-1.643 1.536-3.893 1.536-2.375 0-4.045-1.67t-1.67-4.045 1.67-4.045 4.045-1.67q2.25 0 3.893 1.536l6.429-3.214q-0.036-0.393-0.036-0.607 0-2.375 1.67-4.045t4.045-1.67 4.045 1.67 1.67 4.045-1.67 4.045-4.045 1.67q-2.25 0-3.893-1.536l-6.429 3.214q0.036 0.393 0.036 0.607t-0.036 0.607l6.429 3.214q1.643-1.536 3.893-1.536z"></path>
</symbol>
<symbol id="icon-screen" viewBox="0 0 34 32">
<title>screen</title>
<path class="path1" d="M32 22.286v-17.143q0-0.232-0.17-0.402t-0.402-0.17h-28.571q-0.232 0-0.402 0.17t-0.17 0.402v17.143q0 0.232 0.17 0.402t0.402 0.17h28.571q0.232 0 0.402-0.17t0.17-0.402zM34.286 5.143v17.143q0 1.179-0.839 2.018t-2.018 0.839h-13.143v2.286h6.286q0.25 0 0.411 0.161t0.161 0.411v1.143q0 0.25-0.161 0.411t-0.411 0.161h-14.857q-0.25 0-0.411-0.161t-0.161-0.411v-1.143q0-0.25 0.161-0.411t0.411-0.161h6.286v-2.286h-13.143q-1.179 0-2.018-0.839t-0.839-2.018v-17.143q0-1.179 0.839-2.018t2.018-0.839h28.571q1.179 0 2.018 0.839t0.839 2.018z"></path>
</symbol>
<symbol id="icon-phone-accept" viewBox="0 0 32 32">
<title>phone-accept</title>
<path class="path1" d="M22 20c-2 2-2 4-4 4s-4-2-6-4-4-4-4-6 2-2 4-4-4-8-6-8-6 6-6 6c0 4 4.109 12.109 8 16s12 8 16 8c0 0 6-4 6-6s-6-8-8-6z"></path>
</symbol>
<symbol id="icon-phone-hang-up" viewBox="0 0 32 32">
<title>phone-hang-up</title>
<path class="path1" d="M31.793 18c0.25 1.734 0.413 4.106-0.364 5.014-1.286 1.501-9.428 1.501-9.428-1.501 0-1.512 1.339-2.504 0.053-4.006-1.265-1.477-3.532-1.501-6.054-1.501s-4.789 0.024-6.054 1.501c-1.286 1.501 0.054 2.493 0.054 4.006 0 3.003-8.143 3.003-9.429 1.501-0.777-0.908-0.615-3.28-0.364-5.014 0.193-1.157 0.679-2.406 2.236-4 0-0 0-0 0-0 2.336-2.179 5.87-3.961 13.432-3.999v-0.001c0.042 0 0.083 0 0.125 0s0.083-0 0.125-0v0.001c7.562 0.038 11.096 1.82 13.432 3.999 0 0 0 0 0 0 1.557 1.594 2.043 2.842 2.236 4z"></path>
</symbol>
<symbol id="icon-resize-full" viewBox="0 0 32 32">
<title>resize-full</title>
<path class="path1" d="M32 0v13l-5-5-6 6-3-3 6-6-5-5zM14 21l-6 6 5 5h-13v-13l5 5 6-6z"></path>
</symbol>
</defs>
</svg>